<svg version="1.1" xmlns="http://www.w3.org/2000/svg" viewBox="0 0 2580.5408653900918 891.7917290687482" width="2580.5408653900918" height="891.7917290687482">
  <!-- svg-source:excalidraw -->
  
  <defs>
    <style class="style-fonts">
      @font-face {
        font-family: "Virgil";
        src: url("https://excalidraw.com/Virgil.woff2");
      }
      @font-face {
        font-family: "Cascadia";
        src: url("https://excalidraw.com/Cascadia.woff2");
      }
      @font-face {
        font-family: "Assistant";
        src: url("https://excalidraw.com/Assistant-Regular.woff2");
      }
    </style>
    
  </defs>
  <rect x="0" y="0" width="2580.5408653900918" height="891.7917290687482" fill="#ffffff"></rect><g transform="translate(870.018117002098 41.22409601503526) rotate(0 95.615234375 11.5)"><text x="0" y="0" font-family="Helvetica, Segoe UI Emoji" font-size="20px" fill="#1e1e1e" text-anchor="start" style="white-space: pre;" direction="ltr" dominant-baseline="text-before-edge">.??..??...?##. (1, 1, 3)</text></g><g transform="translate(875.574757627098 69.94344972758941) rotate(0 92.8369140625 11.5)"><text x="0" y="0" font-family="Helvetica, Segoe UI Emoji" font-size="20px" fill="#1e1e1e" text-anchor="start" style="white-space: pre;" direction="ltr" dominant-baseline="text-before-edge">??..??...?##. (1, 1, 3)</text></g><g transform="translate(361.42129678452926 140.83696863854541) rotate(0 92.8369140625 11.5)"><text x="0" y="0" font-family="Helvetica, Segoe UI Emoji" font-size="20px" fill="#2f9e44" text-anchor="start" style="white-space: pre;" direction="ltr" dominant-baseline="text-before-edge">#?..??...?##. (1, 1, 3)</text></g><g transform="translate(405.90371865952926 174.58505968937143) rotate(0 70.595703125 11.5)"><text x="0" y="0" font-family="Helvetica, Segoe UI Emoji" font-size="20px" fill="#1e1e1e" text-anchor="start" style="white-space: pre;" direction="ltr" dominant-baseline="text-before-edge">..??...?##. (1, 3)</text></g><g transform="translate(417.01699990952926 208.33315074019745) rotate(0 65.0390625 11.5)"><text x="0" y="0" font-family="Helvetica, Segoe UI Emoji" font-size="20px" fill="#1e1e1e" text-anchor="start" style="white-space: pre;" direction="ltr" dominant-baseline="text-before-edge">??...?##. (1, 3)</text></g><g transform="translate(163.35689868430643 270.5039278857423) rotate(0 65.0390625 11.5)"><text x="0" y="0" font-family="Helvetica, Segoe UI Emoji" font-size="20px" fill="#2f9e44" text-anchor="start" style="white-space: pre;" direction="ltr" dominant-baseline="text-before-edge">#?...?##. (1, 3)</text></g><g transform="translate(207.83932055930643 309.2165192026912) rotate(0 42.7978515625 11.5)"><text x="0" y="0" font-family="Helvetica, Segoe UI Emoji" font-size="20px" fill="#1e1e1e" text-anchor="start" style="white-space: pre;" direction="ltr" dominant-baseline="text-before-edge">...?##. (3)</text></g><g transform="translate(224.50924243430643 347.92911051964006) rotate(0 34.462890625 11.5)"><text x="0" y="0" font-family="Helvetica, Segoe UI Emoji" font-size="20px" fill="#1e1e1e" text-anchor="start" style="white-space: pre;" direction="ltr" dominant-baseline="text-before-edge">?##. (3)</text></g><g transform="translate(10 462.51121046758817) rotate(0 34.462890625 11.5)"><text x="0" y="0" font-family="Helvetica, Segoe UI Emoji" font-size="20px" fill="#2f9e44" text-anchor="start" style="white-space: pre;" direction="ltr" dominant-baseline="text-before-edge">###. (3)</text></g><g transform="translate(56.123046875 498.91926448619665) rotate(0 11.4013671875 11.5)"><text x="0" y="0" font-family="Helvetica, Segoe UI Emoji" font-size="20px" fill="#2f9e44" text-anchor="start" style="white-space: pre;" direction="ltr" dominant-baseline="text-before-edge">+1</text></g><g transform="translate(549.4032345891932 272.81101648122535) rotate(0 62.255859375 11.5)"><text x="0" y="0" font-family="Helvetica, Segoe UI Emoji" font-size="20px" fill="#1e1e1e" text-anchor="start" style="white-space: pre;" direction="ltr" dominant-baseline="text-before-edge">.?...?##. (1, 3)</text></g><g transform="translate(554.9598752141932 301.9404845616725) rotate(0 59.4775390625 11.5)"><text x="0" y="0" font-family="Helvetica, Segoe UI Emoji" font-size="20px" fill="#1e1e1e" text-anchor="start" style="white-space: pre;" direction="ltr" dominant-baseline="text-before-edge">?...?##. (1, 3)</text></g><g transform="translate(463.3373225716194 466.0110702108898) rotate(0 59.4775390625 11.5)"><text x="0" y="0" font-family="Helvetica, Segoe UI Emoji" font-size="20px" fill="#2f9e44" text-anchor="start" style="white-space: pre;" direction="ltr" dominant-baseline="text-before-edge">#...?##. (1, 3)</text></g><g transform="translate(502.25333819661927 496.83937023863166) rotate(0 40.01953125 11.5)"><text x="0" y="0" font-family="Helvetica, Segoe UI Emoji" font-size="20px" fill="#1e1e1e" text-anchor="start" style="white-space: pre;" direction="ltr" dominant-baseline="text-before-edge">..?##. (3)</text></g><g transform="translate(513.3666194466193 527.6676702663735) rotate(0 34.462890625 11.5)"><text x="0" y="0" font-family="Helvetica, Segoe UI Emoji" font-size="20px" fill="#1e1e1e" text-anchor="start" style="white-space: pre;" direction="ltr" dominant-baseline="text-before-edge">?##. (3)</text></g><g transform="translate(397.0290242542554 642.4264715826479) rotate(0 34.462890625 11.5)"><text x="0" y="0" font-family="Helvetica, Segoe UI Emoji" font-size="20px" fill="#2f9e44" text-anchor="start" style="white-space: pre;" direction="ltr" dominant-baseline="text-before-edge">###. (3)</text></g><g transform="translate(443.1520711292554 674.1554603416826) rotate(0 11.4013671875 11.5)"><text x="0" y="0" font-family="Helvetica, Segoe UI Emoji" font-size="20px" fill="#2f9e44" text-anchor="start" style="white-space: pre;" direction="ltr" dominant-baseline="text-before-edge">+1</text></g><g transform="translate(787.5375306673915 452.71619369455675) rotate(0 56.6943359375 11.5)"><text x="0" y="0" font-family="Helvetica, Segoe UI Emoji" font-size="20px" fill="#1e1e1e" text-anchor="start" style="white-space: pre;" direction="ltr" dominant-baseline="text-before-edge">....?##. (1, 3)</text></g><g transform="translate(809.7640931673915 482.80140751801446) rotate(0 45.5810546875 11.5)"><text x="0" y="0" font-family="Helvetica, Segoe UI Emoji" font-size="20px" fill="#1e1e1e" text-anchor="start" style="white-space: pre;" direction="ltr" dominant-baseline="text-before-edge">?##. (1, 3)</text></g><g transform="translate(254.87476749864715 469.2193515548373) rotate(0 31.6796875 11.5)"><text x="0" y="0" font-family="Helvetica, Segoe UI Emoji" font-size="20px" fill="#1e1e1e" text-anchor="start" style="white-space: pre;" direction="ltr" dominant-baseline="text-before-edge">.##. (3)</text></g><g transform="translate(260.5526787756781 499.774730426204) rotate(0 28.9013671875 11.5)"><text x="0" y="0" font-family="Helvetica, Segoe UI Emoji" font-size="20px" fill="#e03131" text-anchor="start" style="white-space: pre;" direction="ltr" dominant-baseline="text-before-edge">##. (3)</text></g><g transform="translate(295.43140812364715 530.3301092975706) rotate(0 11.4013671875 11.5)"><text x="0" y="0" font-family="Helvetica, Segoe UI Emoji" font-size="20px" fill="#e03131" text-anchor="start" style="white-space: pre;" direction="ltr" dominant-baseline="text-before-edge">+0</text></g><g transform="translate(556.0397321253645 636.6280653374761) rotate(0 31.6796875 11.5)"><text x="0" y="0" font-family="Helvetica, Segoe UI Emoji" font-size="20px" fill="#1e1e1e" text-anchor="start" style="white-space: pre;" direction="ltr" dominant-baseline="text-before-edge">.##. (3)</text></g><g transform="translate(561.5963727503645 664.9317305053495) rotate(0 28.9013671875 11.5)"><text x="0" y="0" font-family="Helvetica, Segoe UI Emoji" font-size="20px" fill="#e03131" text-anchor="start" style="white-space: pre;" direction="ltr" dominant-baseline="text-before-edge">##. (3)</text></g><g transform="translate(596.5963727503645 693.2353956732229) rotate(0 11.4013671875 11.5)"><text x="0" y="0" font-family="Helvetica, Segoe UI Emoji" font-size="20px" fill="#e03131" text-anchor="start" style="white-space: pre;" direction="ltr" dominant-baseline="text-before-edge">+0</text></g><g transform="translate(689.2142678332629 643.4378014010554) rotate(0 45.5810546875 11.5)"><text x="0" y="0" font-family="Helvetica, Segoe UI Emoji" font-size="20px" fill="#e03131" text-anchor="start" style="white-space: pre;" direction="ltr" dominant-baseline="text-before-edge">###. (1, 3)</text></g><g transform="translate(757.5736428332629 675.770932495727) rotate(0 11.4013671875 11.5)"><text x="0" y="0" font-family="Helvetica, Segoe UI Emoji" font-size="20px" fill="#e03131" text-anchor="start" style="white-space: pre;" direction="ltr" dominant-baseline="text-before-edge">+0</text></g><g transform="translate(821.3554514981369 634.7459271349674) rotate(0 42.7978515625 11.5)"><text x="0" y="0" font-family="Helvetica, Segoe UI Emoji" font-size="20px" fill="#1e1e1e" text-anchor="start" style="white-space: pre;" direction="ltr" dominant-baseline="text-before-edge">.##. (1, 3)</text></g><g transform="translate(826.9120921231369 663.7214003770268) rotate(0 40.01953125 11.5)"><text x="0" y="0" font-family="Helvetica, Segoe UI Emoji" font-size="20px" fill="#e03131" text-anchor="start" style="white-space: pre;" direction="ltr" dominant-baseline="text-before-edge">##. (1, 3)</text></g><g transform="translate(884.1484202481369 693.8851789299871) rotate(0 11.4013671875 11.5)"><text x="0" y="0" font-family="Helvetica, Segoe UI Emoji" font-size="20px" fill="#e03131" text-anchor="start" style="white-space: pre;" direction="ltr" dominant-baseline="text-before-edge">+0</text></g><g transform="translate(1421.8721730638044 132.9780263278365) rotate(0 90.0537109375 11.5)"><text x="0" y="0" font-family="Helvetica, Segoe UI Emoji" font-size="20px" fill="#1e1e1e" text-anchor="start" style="white-space: pre;" direction="ltr" dominant-baseline="text-before-edge">.?..??...?##. (1, 1, 3)</text></g><g transform="translate(1428.793565078819 163.49198182878686) rotate(0 87.275390625 11.5)"><text x="0" y="0" font-family="Helvetica, Segoe UI Emoji" font-size="20px" fill="#1e1e1e" text-anchor="start" style="white-space: pre;" direction="ltr" dominant-baseline="text-before-edge">?..??...?##. (1, 1, 3)</text></g><g transform="translate(1070.1995866703783 256.9425623836296) rotate(0 87.275390625 11.5)"><text x="0" y="0" font-family="Helvetica, Segoe UI Emoji" font-size="20px" fill="#2f9e44" text-anchor="start" style="white-space: pre;" direction="ltr" dominant-baseline="text-before-edge">#..??...?##. (1, 1, 3)</text></g><g transform="translate(1109.1156022953783 284.00210911122906) rotate(0 67.8173828125 11.5)"><text x="0" y="0" font-family="Helvetica, Segoe UI Emoji" font-size="20px" fill="#1e1e1e" text-anchor="start" style="white-space: pre;" direction="ltr" dominant-baseline="text-before-edge">.??...?##. (1, 3)</text></g><g transform="translate(1114.6722429203783 311.06165583882853) rotate(0 65.0390625 11.5)"><text x="0" y="0" font-family="Helvetica, Segoe UI Emoji" font-size="20px" fill="#1e1e1e" text-anchor="start" style="white-space: pre;" direction="ltr" dominant-baseline="text-before-edge">??...?##. (1, 3)</text></g><g transform="translate(966.6295094850875 448.60054889410264) rotate(0 65.0390625 11.5)"><text x="0" y="0" font-family="Helvetica, Segoe UI Emoji" font-size="20px" fill="#2f9e44" text-anchor="start" style="white-space: pre;" direction="ltr" dominant-baseline="text-before-edge">#?...?##. (1, 3)</text></g><g transform="translate(1011.1119313600875 479.2102735739835) rotate(0 42.7978515625 11.5)"><text x="0" y="0" font-family="Helvetica, Segoe UI Emoji" font-size="20px" fill="#1e1e1e" text-anchor="start" style="white-space: pre;" direction="ltr" dominant-baseline="text-before-edge">...?##. (3)</text></g><g transform="translate(1027.7818532350875 509.81999825386436) rotate(0 34.462890625 11.5)"><text x="0" y="0" font-family="Helvetica, Segoe UI Emoji" font-size="20px" fill="#1e1e1e" text-anchor="start" style="white-space: pre;" direction="ltr" dominant-baseline="text-before-edge">?##. (3)</text></g><g transform="translate(996.3556366208607 644.0972903358404) rotate(0 34.462890625 11.5)"><text x="0" y="0" font-family="Helvetica, Segoe UI Emoji" font-size="20px" fill="#2f9e44" text-anchor="start" style="white-space: pre;" direction="ltr" dominant-baseline="text-before-edge">###. (3)</text></g><g transform="translate(1042.4786834958607 671.6617599930117) rotate(0 11.4013671875 11.5)"><text x="0" y="0" font-family="Helvetica, Segoe UI Emoji" font-size="20px" fill="#2f9e44" text-anchor="start" style="white-space: pre;" direction="ltr" dominant-baseline="text-before-edge">+1</text></g><g transform="translate(1118.42853154952 609.6906625743253) rotate(0 31.6796875 11.5)"><text x="0" y="0" font-family="Helvetica, Segoe UI Emoji" font-size="20px" fill="#1e1e1e" text-anchor="start" style="white-space: pre;" direction="ltr" dominant-baseline="text-before-edge">.##. (3)</text></g><g transform="translate(1123.98517217452 641.2253728459053) rotate(0 28.9013671875 11.5)"><text x="0" y="0" font-family="Helvetica, Segoe UI Emoji" font-size="20px" fill="#e03131" text-anchor="start" style="white-space: pre;" direction="ltr" dominant-baseline="text-before-edge">##. (3)</text></g><g transform="translate(1158.98517217452 672.7600831174854) rotate(0 11.4013671875 11.5)"><text x="0" y="0" font-family="Helvetica, Segoe UI Emoji" font-size="20px" fill="#e03131" text-anchor="start" style="white-space: pre;" direction="ltr" dominant-baseline="text-before-edge">+0</text></g><g transform="translate(1309.8181109962434 452.3036739494497) rotate(0 62.255859375 11.5)"><text x="0" y="0" font-family="Helvetica, Segoe UI Emoji" font-size="20px" fill="#1e1e1e" text-anchor="start" style="white-space: pre;" direction="ltr" dominant-baseline="text-before-edge">.?...?##. (1, 3)</text></g><g transform="translate(1315.3747516212434 473.62983998628783) rotate(0 59.4775390625 11.5)"><text x="0" y="0" font-family="Helvetica, Segoe UI Emoji" font-size="20px" fill="#1e1e1e" text-anchor="start" style="white-space: pre;" direction="ltr" dominant-baseline="text-before-edge">?...?##. (1, 3)</text></g><g transform="translate(1271.2630103970182 608.4337086777986) rotate(0 59.4775390625 11.5)"><text x="0" y="0" font-family="Helvetica, Segoe UI Emoji" font-size="20px" fill="#2f9e44" text-anchor="start" style="white-space: pre;" direction="ltr" dominant-baseline="text-before-edge">#...?##. (1, 3)</text></g><g transform="translate(1310.1790260220182 639.5172203657344) rotate(0 40.01953125 11.5)"><text x="0" y="0" font-family="Helvetica, Segoe UI Emoji" font-size="20px" fill="#1e1e1e" text-anchor="start" style="white-space: pre;" direction="ltr" dominant-baseline="text-before-edge">..?##. (3)</text></g><g transform="translate(1321.2923072720182 670.6007320536701) rotate(0 34.462890625 11.5)"><text x="0" y="0" font-family="Helvetica, Segoe UI Emoji" font-size="20px" fill="#1e1e1e" text-anchor="start" style="white-space: pre;" direction="ltr" dominant-baseline="text-before-edge">?##. (3)</text></g><g transform="translate(1197.3873795168179 800.7568910247709) rotate(0 34.462890625 11.5)"><text x="0" y="0" font-family="Helvetica, Segoe UI Emoji" font-size="20px" fill="#2f9e44" text-anchor="start" style="white-space: pre;" direction="ltr" dominant-baseline="text-before-edge">###. (3)</text></g><g transform="translate(1243.5104263918179 832.4858797838057) rotate(0 11.4013671875 11.5)"><text x="0" y="0" font-family="Helvetica, Segoe UI Emoji" font-size="20px" fill="#2f9e44" text-anchor="start" style="white-space: pre;" direction="ltr" dominant-baseline="text-before-edge">+1</text></g><g transform="translate(1300.5516994241161 802.1843987330013) rotate(0 31.6796875 11.5)"><text x="0" y="0" font-family="Helvetica, Segoe UI Emoji" font-size="20px" fill="#1e1e1e" text-anchor="start" style="white-space: pre;" direction="ltr" dominant-baseline="text-before-edge">.##. (3)</text></g><g transform="translate(1306.1083400491161 828.5175160973257) rotate(0 28.9013671875 11.5)"><text x="0" y="0" font-family="Helvetica, Segoe UI Emoji" font-size="20px" fill="#e03131" text-anchor="start" style="white-space: pre;" direction="ltr" dominant-baseline="text-before-edge">##. (3)</text></g><g transform="translate(1341.1083400491161 858.7917290687482) rotate(0 11.4013671875 11.5)"><text x="0" y="0" font-family="Helvetica, Segoe UI Emoji" font-size="20px" fill="#e03131" text-anchor="start" style="white-space: pre;" direction="ltr" dominant-baseline="text-before-edge">+0</text></g><g transform="translate(1753.0565693824165 265.81559118159316) rotate(0 84.4921875 11.5)"><text x="0" y="0" font-family="Helvetica, Segoe UI Emoji" font-size="20px" fill="#1e1e1e" text-anchor="start" style="white-space: pre;" direction="ltr" dominant-baseline="text-before-edge">...??...?##. (1, 1, 3)</text></g><g transform="translate(1770.635262292285 292.2147741592189) rotate(0 76.1572265625 11.5)"><text x="0" y="0" font-family="Helvetica, Segoe UI Emoji" font-size="20px" fill="#1e1e1e" text-anchor="start" style="white-space: pre;" direction="ltr" dominant-baseline="text-before-edge">??...?##. (1, 1, 3)</text></g><g transform="translate(1420.2526091475102 609.7612637178787) rotate(0 56.6943359375 11.5)"><text x="0" y="0" font-family="Helvetica, Segoe UI Emoji" font-size="20px" fill="#1e1e1e" text-anchor="start" style="white-space: pre;" direction="ltr" dominant-baseline="text-before-edge">....?##. (1, 3)</text></g><g transform="translate(1442.4791716475102 638.7306753639468) rotate(0 45.5810546875 11.5)"><text x="0" y="0" font-family="Helvetica, Segoe UI Emoji" font-size="20px" fill="#1e1e1e" text-anchor="start" style="white-space: pre;" direction="ltr" dominant-baseline="text-before-edge">?##. (1, 3)</text></g><g transform="translate(1451.37800637165 793.5497486286354) rotate(0 45.5810546875 11.5)"><text x="0" y="0" font-family="Helvetica, Segoe UI Emoji" font-size="20px" fill="#e03131" text-anchor="start" style="white-space: pre;" direction="ltr" dominant-baseline="text-before-edge">###. (1, 3)</text></g><g transform="translate(1519.73738137165 825.7579342030328) rotate(0 11.4013671875 11.5)"><text x="0" y="0" font-family="Helvetica, Segoe UI Emoji" font-size="20px" fill="#e03131" text-anchor="start" style="white-space: pre;" direction="ltr" dominant-baseline="text-before-edge">+0</text></g><g transform="translate(1575.3130220348708 794.6152076527243) rotate(0 42.7978515625 11.5)"><text x="0" y="0" font-family="Helvetica, Segoe UI Emoji" font-size="20px" fill="#1e1e1e" text-anchor="start" style="white-space: pre;" direction="ltr" dominant-baseline="text-before-edge">.##. (1, 3)</text></g><g transform="translate(1580.8696626598708 823.5906808947836) rotate(0 40.01953125 11.5)"><text x="0" y="0" font-family="Helvetica, Segoe UI Emoji" font-size="20px" fill="#e03131" text-anchor="start" style="white-space: pre;" direction="ltr" dominant-baseline="text-before-edge">##. (1, 3)</text></g><g transform="translate(1638.1059907848708 853.754459447744) rotate(0 11.4013671875 11.5)"><text x="0" y="0" font-family="Helvetica, Segoe UI Emoji" font-size="20px" fill="#e03131" text-anchor="start" style="white-space: pre;" direction="ltr" dominant-baseline="text-before-edge">+0</text></g><g transform="translate(1645.9942128630155 423.158333073133) rotate(0 76.1572265625 11.5)"><text x="0" y="0" font-family="Helvetica, Segoe UI Emoji" font-size="20px" fill="#2f9e44" text-anchor="start" style="white-space: pre;" direction="ltr" dominant-baseline="text-before-edge">#?...?##. (1, 1, 3)</text></g><g transform="translate(1690.4766347380155 453.7639505161029) rotate(0 53.916015625 11.5)"><text x="0" y="0" font-family="Helvetica, Segoe UI Emoji" font-size="20px" fill="#1e1e1e" text-anchor="start" style="white-space: pre;" direction="ltr" dominant-baseline="text-before-edge">...?##. (1, 3)</text></g><g transform="translate(1707.1465566130155 484.3695679590728) rotate(0 45.5810546875 11.5)"><text x="0" y="0" font-family="Helvetica, Segoe UI Emoji" font-size="20px" fill="#1e1e1e" text-anchor="start" style="white-space: pre;" direction="ltr" dominant-baseline="text-before-edge">?##. (1, 3)</text></g><g transform="translate(1630.3699850067628 610.1878852942414) rotate(0 45.5810546875 11.5)"><text x="0" y="0" font-family="Helvetica, Segoe UI Emoji" font-size="20px" fill="#e03131" text-anchor="start" style="white-space: pre;" direction="ltr" dominant-baseline="text-before-edge">###. (1, 3)</text></g><g transform="translate(1698.7293600067628 642.521016388913) rotate(0 11.4013671875 11.5)"><text x="0" y="0" font-family="Helvetica, Segoe UI Emoji" font-size="20px" fill="#e03131" text-anchor="start" style="white-space: pre;" direction="ltr" dominant-baseline="text-before-edge">+0</text></g><g transform="translate(1800.3961570162437 594.1694451102969) rotate(0 42.7978515625 11.5)"><text x="0" y="0" font-family="Helvetica, Segoe UI Emoji" font-size="20px" fill="#1e1e1e" text-anchor="start" style="white-space: pre;" direction="ltr" dominant-baseline="text-before-edge">.##. (1, 3)</text></g><g transform="translate(1805.9527976412437 623.1449183523564) rotate(0 40.01953125 11.5)"><text x="0" y="0" font-family="Helvetica, Segoe UI Emoji" font-size="20px" fill="#e03131" text-anchor="start" style="white-space: pre;" direction="ltr" dominant-baseline="text-before-edge">##. (1, 3)</text></g><g transform="translate(1863.1891257662437 653.3086969053168) rotate(0 11.4013671875 11.5)"><text x="0" y="0" font-family="Helvetica, Segoe UI Emoji" font-size="20px" fill="#e03131" text-anchor="start" style="white-space: pre;" direction="ltr" dominant-baseline="text-before-edge">+0</text></g><g transform="translate(2049.4031495330914 423.9405714548934) rotate(0 73.3740234375 11.500000000000028)"><text x="0" y="0" font-family="Helvetica, Segoe UI Emoji" font-size="20px" fill="#1e1e1e" text-anchor="start" style="white-space: pre;" direction="ltr" dominant-baseline="text-before-edge">.?...?##. (1, 1, 3)</text></g><g transform="translate(2054.9597901580914 446.6791092473095) rotate(0 70.595703125 11.5)"><text x="0" y="0" font-family="Helvetica, Segoe UI Emoji" font-size="20px" fill="#1e1e1e" text-anchor="start" style="white-space: pre;" direction="ltr" dominant-baseline="text-before-edge">?...?##. (1, 1, 3)</text></g><g transform="translate(2003.034065686842 590.0252046325245) rotate(0 70.595703125 11.5)"><text x="0" y="0" font-family="Helvetica, Segoe UI Emoji" font-size="20px" fill="#2f9e44" text-anchor="start" style="white-space: pre;" direction="ltr" dominant-baseline="text-before-edge">#...?##. (1, 1, 3)</text></g><g transform="translate(2041.950081311842 618.2076420365926) rotate(0 51.1376953125 11.5)"><text x="0" y="0" font-family="Helvetica, Segoe UI Emoji" font-size="20px" fill="#1e1e1e" text-anchor="start" style="white-space: pre;" direction="ltr" dominant-baseline="text-before-edge">..?##. (1, 3)</text></g><g transform="translate(2053.063362561842 646.3900794406605) rotate(0 45.5810546875 11.5)"><text x="0" y="0" font-family="Helvetica, Segoe UI Emoji" font-size="20px" fill="#1e1e1e" text-anchor="start" style="white-space: pre;" direction="ltr" dominant-baseline="text-before-edge">?##. (1, 3)</text></g><g transform="translate(1928.4160802819765 786.9634627028768) rotate(0 45.5810546875 11.5)"><text x="0" y="0" font-family="Helvetica, Segoe UI Emoji" font-size="20px" fill="#e03131" text-anchor="start" style="white-space: pre;" direction="ltr" dominant-baseline="text-before-edge">###. (1, 3)</text></g><g transform="translate(1996.7754552819765 819.2965937975484) rotate(0 11.4013671875 11.5)"><text x="0" y="0" font-family="Helvetica, Segoe UI Emoji" font-size="20px" fill="#e03131" text-anchor="start" style="white-space: pre;" direction="ltr" dominant-baseline="text-before-edge">+0</text></g><g transform="translate(2139.144206928857 781.9060443258802) rotate(0 42.7978515625 11.5)"><text x="0" y="0" font-family="Helvetica, Segoe UI Emoji" font-size="20px" fill="#1e1e1e" text-anchor="start" style="white-space: pre;" direction="ltr" dominant-baseline="text-before-edge">.##. (1, 3)</text></g><g transform="translate(2144.700847553857 811.4756702233901) rotate(0 40.01953125 11.5)"><text x="0" y="0" font-family="Helvetica, Segoe UI Emoji" font-size="20px" fill="#e03131" text-anchor="start" style="white-space: pre;" direction="ltr" dominant-baseline="text-before-edge">##. (1, 3)</text></g><g transform="translate(2201.937175678857 841.0452961209) rotate(0 11.4013671875 11.5)"><text x="0" y="0" font-family="Helvetica, Segoe UI Emoji" font-size="20px" fill="#e03131" text-anchor="start" style="white-space: pre;" direction="ltr" dominant-baseline="text-before-edge">+0</text></g><g transform="translate(2269.812483818417 591.7541152374532) rotate(0 67.8125 11.5)"><text x="0" y="0" font-family="Helvetica, Segoe UI Emoji" font-size="20px" fill="#1e1e1e" text-anchor="start" style="white-space: pre;" direction="ltr" dominant-baseline="text-before-edge">....?##. (1, 1, 3)</text></g><g transform="translate(2292.039046318417 620.755640395227) rotate(0 56.69921875 11.5)"><text x="0" y="0" font-family="Helvetica, Segoe UI Emoji" font-size="20px" fill="#1e1e1e" text-anchor="start" style="white-space: pre;" direction="ltr" dominant-baseline="text-before-edge">?##. (1, 1, 3)</text></g><g transform="translate(2295.9984604399133 785.9680416624786) rotate(0 56.69921875 11.5)"><text x="0" y="0" font-family="Helvetica, Segoe UI Emoji" font-size="20px" fill="#e03131" text-anchor="start" style="white-space: pre;" direction="ltr" dominant-baseline="text-before-edge">###. (1, 1, 3)</text></g><g transform="translate(2386.5941635649133 814.9861355698964) rotate(0 11.4013671875 11.5)"><text x="0" y="0" font-family="Helvetica, Segoe UI Emoji" font-size="20px" fill="#e03131" text-anchor="start" style="white-space: pre;" direction="ltr" dominant-baseline="text-before-edge">+0</text></g><g transform="translate(2462.7088341400918 787.0740057012026) rotate(0 53.916015625 11.5)"><text x="0" y="0" font-family="Helvetica, Segoe UI Emoji" font-size="20px" fill="#1e1e1e" text-anchor="start" style="white-space: pre;" direction="ltr" dominant-baseline="text-before-edge">.##. (1, 1, 3)</text></g><g transform="translate(2468.2654747650918 812.5960934337775) rotate(0 51.1376953125 11.5)"><text x="0" y="0" font-family="Helvetica, Segoe UI Emoji" font-size="20px" fill="#e03131" text-anchor="start" style="white-space: pre;" direction="ltr" dominant-baseline="text-before-edge">##. (1, 1, 3)</text></g><g transform="translate(2547.7381310150918 848.0552887652238) rotate(0 11.4013671875 11.5)"><text x="0" y="0" font-family="Helvetica, Segoe UI Emoji" font-size="20px" fill="#e03131" text-anchor="start" style="white-space: pre;" direction="ltr" dominant-baseline="text-before-edge">+0</text></g><g stroke-linecap="round"><g transform="translate(868.012002617562 86.87101138989075) rotate(0 -155.02065325636772 35.51209239232418)"><path d="M0 0 C-51.67 11.84, -258.37 59.19, -310.04 71.02" stroke="#e03131" stroke-width="2.5" fill="none" stroke-dasharray="8 10"></path></g></g><mask></mask><g stroke-linecap="round"><g transform="translate(1075.0834652966287 89.9754695015445) rotate(0 170.59956999918074 27.113430886905164)"><path d="M0 0 C56.87 9.04, 284.33 45.19, 341.2 54.23" stroke="#e03131" stroke-width="2.5" fill="none" stroke-dasharray="8 10"></path></g></g><mask></mask><g stroke-linecap="round"><g transform="translate(416.9581614854942 240.09712682878896) rotate(0 -56.97399785746845 20.377037072228518)"><path d="M0 0 C-18.99 6.79, -94.96 33.96, -113.95 40.75" stroke="#e03131" stroke-width="2.5" fill="none" stroke-dasharray="8 10"></path></g></g><mask></mask><g stroke-linecap="round"><g transform="translate(242.75441120841452 386.54780602538403) rotate(0 -76.95033895859433 37.576571216018664)"><path d="M0 0 C-25.65 12.53, -128.25 62.63, -153.9 75.15" stroke="#e03131" stroke-width="2.5" fill="none" stroke-dasharray="8 10"></path></g></g><mask></mask><g stroke-linecap="round"><g transform="translate(283.61082120240314 378.07736603660476) rotate(0 1.792765770309174 44.06633033862332)"><path d="M0 0 C0.6 14.69, 2.99 73.44, 3.59 88.13" stroke="#e03131" stroke-width="2.5" fill="none" stroke-dasharray="8 10"></path></g></g><mask></mask><g stroke-linecap="round"><g transform="translate(547.9383793966549 237.67325791111418) rotate(0 21.41949508465109 15.083304459593393)"><path d="M0 0 C7.14 5.03, 35.7 25.14, 42.84 30.17" stroke="#e03131" stroke-width="2.5" fill="none" stroke-dasharray="8 10"></path></g></g><mask></mask><g stroke-linecap="round"><g transform="translate(612.163335671382 335.38203483233735) rotate(0 -42.28137475820944 59.98888916720452)"><path d="M0 0 C-14.09 20, -70.47 99.98, -84.56 119.98" stroke="#e03131" stroke-width="2.5" fill="none" stroke-dasharray="8 10"></path></g></g><mask></mask><g stroke-linecap="round"><g transform="translate(627.5969928479143 335.4040551642332) rotate(0 106.03867955445003 55.096014762113896)"><path d="M0 0 C35.35 18.37, 176.73 91.83, 212.08 110.19" stroke="#e03131" stroke-width="2.5" fill="none" stroke-dasharray="8 10"></path></g></g><mask></mask><g stroke-linecap="round"><g transform="translate(545.7858251971883 564.8595835740583) rotate(0 -49.3054009795336 37.52924785895584)"><path d="M0 0 C-16.44 12.51, -82.18 62.55, -98.61 75.06" stroke="#e03131" stroke-width="2.5" fill="none" stroke-dasharray="8 10"></path></g></g><mask></mask><g stroke-linecap="round"><g transform="translate(554.2230788891216 562.4740476186771) rotate(0 17.42264644597111 33.97501176731038)"><path d="M0 0 C5.81 11.33, 29.04 56.63, 34.85 67.95" stroke="#e03131" stroke-width="2.5" fill="none" stroke-dasharray="8 10"></path></g></g><mask></mask><g stroke-linecap="round"><g transform="translate(837.8532035732696 518.0172862385175) rotate(0 -44.871356841512466 60.86992573407241)"><path d="M0 0 C-14.96 20.29, -74.79 101.45, -89.74 121.74" stroke="#e03131" stroke-width="2.5" fill="none" stroke-dasharray="8 10"></path></g></g><mask></mask><g stroke-linecap="round"><g transform="translate(855.6342460101299 515.0408713772649) rotate(0 12.638365579168862 53.93246124510978)"><path d="M0 0 C4.21 17.98, 21.06 89.89, 25.28 107.86" stroke="#e03131" stroke-width="2.5" fill="none" stroke-dasharray="8 10"></path></g></g><mask></mask><g stroke-linecap="round"><g transform="translate(1478.197399095438 199.7239757266831) rotate(0 -112.67918141828602 25.767537797094747)"><path d="M0 0 C-37.56 8.59, -187.8 42.95, -225.36 51.54" stroke="#e03131" stroke-width="2.5" fill="none" stroke-dasharray="8 10"></path></g></g><mask></mask><g stroke-linecap="round"><g transform="translate(1168.7169174412365 346.6458046133549) rotate(0 -50.28767120280048 46.453318629761156)"><path d="M0 0 C-16.76 15.48, -83.81 77.42, -100.58 92.91" stroke="#e03131" stroke-width="2.5" fill="none" stroke-dasharray="8 10"></path></g></g><mask></mask><g stroke-linecap="round"><g transform="translate(1071.4557959145968 542.428575499146) rotate(0 36.54315229686836 31.652530124119608)"><path d="M0 0 C12.18 10.55, 60.91 52.75, 73.09 63.31" stroke="#e03131" stroke-width="2.5" fill="none" stroke-dasharray="8 10"></path></g></g><mask></mask><g stroke-linecap="round"><g transform="translate(1038.1781555682428 543.7975061320032) rotate(0 -0.8193866280254269 46.78718082829846)"><path d="M0 0 C-0.27 15.6, -1.37 77.98, -1.64 93.57" stroke="#e03131" stroke-width="2.5" fill="none" stroke-dasharray="8 10"></path></g></g><mask></mask><g stroke-linecap="round"><g transform="translate(1234.926821856281 345.64020945677885) rotate(0 66.42983624673377 49.05212432561089)"><path d="M0 0 C22.14 16.35, 110.72 81.75, 132.86 98.1" stroke="#e03131" stroke-width="2.5" fill="none" stroke-dasharray="8 10"></path></g></g><mask></mask><g stroke-linecap="round"><g transform="translate(1368.9682521614914 512.0698779254335) rotate(0 -16.962995670418195 44.03148865336249)"><path d="M0 0 C-5.65 14.68, -28.27 73.39, -33.93 88.06" stroke="#e03131" stroke-width="2.5" fill="none" stroke-dasharray="8 10"></path></g></g><mask></mask><g stroke-linecap="round"><g transform="translate(1409.40492163286 510.0623576675973) rotate(0 30.929391175345927 46.5179511299329)"><path d="M0 0 C10.31 15.51, 51.55 77.53, 61.86 93.04" stroke="#e03131" stroke-width="2.5" fill="none" stroke-dasharray="8 10"></path></g></g><mask></mask><g stroke-linecap="round"><g transform="translate(1338.8003974642093 705.1661683199337) rotate(0 -50.88715198359648 45.03157872696454)"><path d="M0 0 C-16.96 15.01, -84.81 75.05, -101.77 90.06" stroke="#e03131" stroke-width="2.5" fill="none" stroke-dasharray="8 10"></path></g></g><mask></mask><g stroke-linecap="round"><g transform="translate(1351.9648858825972 704.479867975847) rotate(0 -4.238913889946502 44.426019599829374)"><path d="M0 0 C-1.41 14.81, -7.06 74.04, -8.48 88.85" stroke="#e03131" stroke-width="2.5" fill="none" stroke-dasharray="8 10"></path></g></g><mask></mask><g stroke-linecap="round"><g transform="translate(1485.173213631082 677.6077229523072) rotate(0 1.8809033494351297 54.19937690626023)"><path d="M0 0 C0.63 18.07, 3.13 90.33, 3.76 108.4" stroke="#e03131" stroke-width="2.5" fill="none" stroke-dasharray="8 10"></path></g></g><mask></mask><g stroke-linecap="round"><g transform="translate(1505.208045600968 671.302567919469) rotate(0 52.22672217392585 57.34644933970537)"><path d="M0 0 C17.41 19.12, 87.04 95.58, 104.45 114.69" stroke="#e03131" stroke-width="2.5" fill="none" stroke-dasharray="8 10"></path></g></g><mask></mask><g stroke-linecap="round"><g transform="translate(1532.1662055155548 201.21608900900893) rotate(0 142.4791115005462 27.83986163046552)"><path d="M0 0 C47.49 9.28, 237.47 46.4, 284.96 55.68" stroke="#e03131" stroke-width="2.5" fill="none" stroke-dasharray="8 10"></path></g></g><mask></mask><g stroke-linecap="round"><g transform="translate(1835.6343673210918 328.5256001878646) rotate(0 -42.41069169042191 43.43714866421624)"><path d="M0 0 C-14.14 14.48, -70.68 72.4, -84.82 86.87" stroke="#e03131" stroke-width="2.5" fill="none" stroke-dasharray="8 10"></path></g></g><mask></mask><g stroke-linecap="round"><g transform="translate(1859.1355755100558 326.2337869840477) rotate(0 120.2452841115728 44.2307800916864)"><path d="M0 0 C40.08 14.74, 200.41 73.72, 240.49 88.46" stroke="#e03131" stroke-width="2.5" fill="none" stroke-dasharray="8 10"></path></g></g><mask></mask><g stroke-linecap="round"><g transform="translate(1749.7683058367415 518.8432754631377) rotate(0 -33.13816123681613 43.4857383434491)"><path d="M0 0 C-11.05 14.5, -55.23 72.48, -66.28 86.97" stroke="#e03131" stroke-width="2.5" fill="none" stroke-dasharray="8 10"></path></g></g><mask></mask><g stroke-linecap="round"><g transform="translate(1769.5362070046467 521.1877274861237) rotate(0 34.55738478440958 32.929630530108454)"><path d="M0 0 C11.52 10.98, 57.6 54.88, 69.11 65.86" stroke="#e03131" stroke-width="2.5" fill="none" stroke-dasharray="8 10"></path></g></g><mask></mask><g stroke-linecap="round"><g transform="translate(2129.861071635854 482.1175762429615) rotate(0 -23.09022048545262 49.02091263606002)"><path d="M0 0 C-7.7 16.34, -38.48 81.7, -46.18 98.04" stroke="#e03131" stroke-width="2.5" fill="none" stroke-dasharray="8 10"></path></g></g><mask></mask><g stroke-linecap="round"><g transform="translate(2149.0297000932205 482.2957384001486) rotate(0 88.97985009519016 52.14279952677185)"><path d="M0 0 C29.66 17.38, 148.3 86.9, 177.96 104.29" stroke="#e03131" stroke-width="2.5" fill="none" stroke-dasharray="8 10"></path></g></g><mask></mask><g stroke-linecap="round"><g transform="translate(2084.146281757597 679.2418557507722) rotate(0 -45.303802174745556 51.55162509610523)"><path d="M0 0 C-15.1 17.18, -75.51 85.92, -90.61 103.1" stroke="#e03131" stroke-width="2.5" fill="none" stroke-dasharray="8 10"></path></g></g><mask></mask><g stroke-linecap="round"><g transform="translate(2104.173327881411 677.3225634210738) rotate(0 33.30012683425912 48.030897921690325)"><path d="M0 0 C11.1 16.01, 55.5 80.05, 66.6 96.06" stroke="#e03131" stroke-width="2.5" fill="none" stroke-dasharray="8 10"></path></g></g><mask></mask><g stroke-linecap="round"><g transform="translate(2349.045065515387 653.5014731771602) rotate(0 -4.0450907961362645 61.150111314564754)"><path d="M0 0 C-1.35 20.38, -6.74 101.92, -8.09 122.3" stroke="#e03131" stroke-width="2.5" fill="none" stroke-dasharray="8 10"></path></g></g><mask></mask><g stroke-linecap="round"><g transform="translate(2367.177114149119 654.444922782265) rotate(0 68.01947721611145 61.6461309567336)"><path d="M0 0 C22.67 20.55, 113.37 102.74, 136.04 123.29" stroke="#e03131" stroke-width="2.5" fill="none" stroke-dasharray="8 10"></path></g></g><mask></mask><g transform="translate(919.7687000392554 10) rotate(0 42.79296875 11.5)"><text x="0" y="0" font-family="Helvetica, Segoe UI Emoji" font-size="20px" fill="#2f9e44" text-anchor="start" style="white-space: pre;" direction="ltr" dominant-baseline="text-before-edge">result is 4</text></g></svg>